<?xml version="1.0" encoding="UTF-8"?><svg id="uuid-104edb94-d94d-44c0-9a4f-46e008f7dfc0" xmlns="http://www.w3.org/2000/svg" viewBox="0 0 1051.5078125 121.599609375"><path d="M16.89599609375,31.23095703125c-.171875.171875-.5341796875.68408203125-1.087890625,1.53564453125-.55615234375.85400390625-1.13232421875,1.900390625-1.72802734375,3.13623046875-.59814453125,1.23779296875-1.1318359375,2.5400390625-1.60009765625,3.90380859375-.47021484375,1.3662109375-.7041015625,2.68798828125-.7041015625,3.96826171875,0,3.5,1.15234375,6.78369140625,3.4560546875,9.85595703125,1.5361328125,2.0478515625,3.13623046875,4.03125,4.80029296875,5.9521484375,1.66357421875,1.919921875,3.15576171875,3.9033203125,4.47998046875,5.9521484375,1.32177734375,2.0478515625,2.40966796875,4.267578125,3.263671875,6.65625.85205078125,2.3896484375,1.2802734375,5.119140625,1.2802734375,8.19140625,0,3.755859375-.68408203125,7.318359375-2.04833984375,10.6875-1.36572265625,3.373046875-3.24365234375,6.380859375-5.6318359375,9.0244140625-2.39013671875,2.6455078125-5.248046875,4.7802734375-8.576171875,6.3994140625-3.32763671875,1.623046875-6.91162109375,2.560546875-10.751953125,2.81640625-.68408203125,0-1.19580078125-.2138671875-1.53564453125-.6396484375-.34228515625-.4267578125-.51220703125-.9794921875-.51220703125-1.6640625v-5.6318359375c0-1.1943359375.68212890625-1.8759765625,2.0478515625-2.048828125,2.30419921875-.255859375,4.47998046875-1.0234375,6.5283203125-2.302734375,2.0478515625-1.28125,3.83984375-2.8359375,5.3759765625-4.6728515625,1.53564453125-1.833984375,2.77197265625-3.8818359375,3.7119140625-6.1435546875.93798828125-2.259765625,1.40771484375-4.5,1.40771484375-6.720703125,0-2.5595703125-.57568359375-4.9052734375-1.7275390625-7.0390625-1.15234375-2.1328125-2.5400390625-4.138671875-4.16015625-6.0166015625-1.6220703125-1.8759765625-3.26416015625-3.75390625-4.92822265625-5.6318359375-1.6640625-1.8759765625-3.0078125-3.83984375-4.03173828125-5.888671875-1.8779296875-3.75341796875-2.81591796875-7.63525390625-2.81591796875-11.6474609375,0-3.66796875.70361328125-7.2099609375,2.11181640625-10.6240234375,1.408203125-3.41162109375,3.34814453125-6.44189453125,5.82421875-9.087890625,2.4736328125-2.64404296875,5.39599609375-4.81982421875,8.767578125-6.52783203125,3.3701171875-1.7060546875,7.01806640625-2.64404296875,10.9443359375-2.81591796875.681640625,0,1.19384765625.2138671875,1.53564453125.6396484375.34033203125.42822265625.51220703125.98193359375.51220703125,1.6640625v5.88818359375c0,1.10986328125-.68408203125,1.75-2.0478515625,1.919921875-2.47607421875.341796875-4.71630859375,1.1318359375-6.72021484375,2.3681640625-2.005859375,1.23779296875-3.81982421875,2.751953125-5.43994140625,4.5439453125Z"/><path d="M97.4072265625,19.0947265625v6.34619140625c0,1.64208984375-.767578125,2.4619140625-2.3037109375,2.4619140625h-26.8798828125v78.85205078125c0,.51171875-.1923828125.9794921875-.576171875,1.4052734375-.3837890625.4267578125-.91796875.638671875-1.60009765625.638671875h-6.39990234375c-1.3662109375,0-2.0478515625-.681640625-2.0478515625-2.0478515625V19.07080078125c0-1.27978515625.681640625-1.919921875,2.0478515625-1.919921875h35.4560546875c1.27978515625,0,2.0478515625.64794921875,2.3037109375,1.94384765625Z"/><path d="M153.5986328125,18.68701171875c6.99560546875,16.2138671875,13.267578125,30.7197265625,18.81591796875,43.52001953125,2.3037109375,5.4619140625,4.5859375,10.7958984375,6.84765625,16,2.26025390625,5.205078125,4.2880859375,9.85546875,6.080078125,13.951171875,2.13232421875,4.78125,4.09619140625,9.302734375,5.88818359375,13.568359375.169921875.427734375.27587890625.748046875.31982421875.9609375.0419921875.212890625.06396484375.4052734375.06396484375.5751953125,0,1.0244140625-.72607421875,1.5361328125-2.17578125,1.5361328125h-77.43994140625c-1.6220703125,0-2.43212890625-.640625-2.43212890625-1.919921875,0-.51171875.083984375-.896484375.255859375-1.15234375l38.14404296875-87.03955078125c.51220703125-1.1083984375,1.408203125-1.6640625,2.68798828125-1.6640625h.38427734375c.85205078125,0,1.40771484375.10791015625,1.6640625.31982421875.255859375.2138671875.5537109375.662109375.89599609375,1.34423828125ZM124.79833984375,98.046875h51.83984375l-25.85595703125-60.92822265625-25.98388671875,60.92822265625Z"/><path d="M243.0693359375,64.2548828125c2.30419921875-.169921875,4.4580078125-.7880859375,6.4638671875-1.8564453125,2.00439453125-1.0654296875,3.7763671875-2.431640625,5.31201171875-4.095703125,1.5361328125-1.6640625,2.75244140625-3.56201171875,3.6484375-5.69580078125.89599609375-2.13232421875,1.34375-4.35205078125,1.34375-6.65625,0-2.3037109375-.4697265625-4.56396484375-1.408203125-6.78369140625-.93994140625-2.21826171875-2.19775390625-4.18017578125-3.77587890625-5.88818359375-1.580078125-1.7060546875-3.4560546875-3.07177734375-5.6318359375-4.09619140625-2.17626953125-1.02392578125-4.4599609375-1.53564453125-6.84814453125-1.53564453125h-30.84814453125c-1.36572265625,0-2.0478515625-.72412109375-2.0478515625-2.17626953125v-6.39990234375c0-1.27978515625.68212890625-1.919921875,2.0478515625-1.919921875h30.97607421875c3.84033203125,0,7.46630859375.76806640625,10.88037109375,2.3037109375,3.41162109375,1.5361328125,6.3857421875,3.6064453125,8.921875,6.2080078125,2.5361328125,2.60400390625,4.56201171875,5.654296875,6.080078125,9.15234375,1.51806640625,3.5,2.27783203125,7.16796875,2.27783203125,11.0078125,0,3.244140625-.55419921875,6.3798828125-1.662109375,9.40771484375-1.10791015625,3.0302734375-2.61767578125,5.7822265625-4.53369140625,8.255859375-1.916015625,2.4765625-4.1962890625,4.65234375-6.83642578125,6.5283203125-2.6396484375,1.8779296875-5.53564453125,3.244140625-8.685546875,4.0966796875l19.9677734375,33.279296875c.255859375.51171875.3837890625.853515625.3837890625,1.0244140625,0,.255859375-.3837890625.3837890625-1.15185546875.3837890625h-9.60009765625c-.68359375,0-1.23779296875-.19140625-1.6640625-.576171875-.427734375-.3837890625-.8115234375-.83203125-1.15185546875-1.34375l-19.2958984375-32.1279296875h-21.833984375v32.1279296875c0,1.279296875-.64013671875,1.919921875-1.919921875,1.919921875h-6.65625c-1.36572265625,0-2.0478515625-.640625-2.0478515625-1.919921875v-40.4482421875c0-1.4501953125.68212890625-2.17578125,2.0478515625-2.17578125h37.248046875Z"/><path d="M339.4501953125,107.0068359375c0,1.1962890625-.7177734375,1.7919921875-2.150390625,1.7919921875h-6.44921875c-1.3505859375,0-2.0244140625-.595703125-2.0244140625-1.7919921875V19.19873046875c0-1.36376953125.673828125-2.0478515625,2.0244140625-2.0478515625h59.1591796875c1.4501953125,0,2.1767578125.73388671875,2.1767578125,2.2021484375v6.2177734375c0,.69189453125-.1923828125,1.251953125-.576171875,1.68408203125s-.91796875.64794921875-1.6005859375.64794921875h-50.5595703125v29.69580078125h35.83984375c1.2802734375,0,1.919921875.6845703125,1.919921875,2.0478515625v6.400390625c0,.59765625-.171875,1.1318359375-.51171875,1.599609375-.341796875.470703125-.8125.7041015625-1.408203125.7041015625h-35.83984375v38.65625Z"/><path d="M404.47265625,106.7509765625V18.94287109375c0-1.19384765625.673828125-1.7919921875,2.0244140625-1.7919921875h60.439453125c1.2802734375,0,1.919921875.64794921875,1.919921875,1.94384765625v6.47607421875c0,1.55615234375-.68359375,2.33203125-2.0478515625,2.33203125h-51.7119140625v15.23193359375h41.087890625c.595703125,0,1.06640625.2138671875,1.408203125.64013671875.33984375.427734375.51171875.93994140625.51171875,1.5361328125v6.39990234375c0,.59765625-.171875,1.10986328125-.51171875,1.5361328125-.341796875.427734375-.8125.6396484375-1.408203125.6396484375h-41.087890625v15.8720703125h41.087890625c1.2802734375,0,1.919921875.6845703125,1.919921875,2.0478515625v6.5283203125c0,.51171875-.171875,1.00390625-.51171875,1.4716796875-.341796875.470703125-.8125.7041015625-1.408203125.7041015625h-41.087890625v17.5361328125h51.328125c.681640625,0,1.236328125.1953125,1.6640625.583984375.42578125.388671875.6396484375.927734375.6396484375,1.6181640625v6.34765625c0,1.4677734375-.7255859375,2.2021484375-2.17578125,2.2021484375h-60.0556640625c-1.3505859375,0-2.0244140625-.681640625-2.0244140625-2.0478515625Z"/><path d="M483.1923828125,108.798828125c-1.3662109375,0-2.0478515625-.595703125-2.0478515625-1.7919921875V19.32666015625c0-1.44970703125.681640625-2.17578125,2.0478515625-2.17578125h29.4404296875c6.3134765625,0,12.2880859375,1.173828125,17.919921875,3.52001953125,5.6318359375,2.34814453125,10.5380859375,5.58984375,14.7197265625,9.72802734375,4.1796875,4.14013671875,7.48828125,9.00390625,9.919921875,14.591796875,2.4326171875,5.59033203125,3.6484375,11.62841796875,3.6484375,18.11279296875,0,6.5712890625-1.2802734375,12.6513671875-3.83984375,18.2392578125-2.560546875,5.58984375-5.974609375,10.412109375-10.240234375,14.4638671875-4.2685546875,4.0546875-9.173828125,7.232421875-14.7197265625,9.5361328125-5.548828125,2.3037109375-11.3505859375,3.4560546875-17.408203125,3.4560546875h-29.4404296875ZM491.7685546875,98.302734375h20.5615234375c5.1083984375,0,9.8544921875-.9599609375,14.23828125-2.8798828125s8.173828125-4.5,11.3662109375-7.744140625c3.1923828125-3.2412109375,5.7041015625-7.0595703125,7.5361328125-11.4560546875,1.830078125-4.39453125,2.74609375-9.107421875,2.74609375-14.14453125,0-5.119140625-.9580078125-9.79150390625-2.8740234375-14.01513671875-1.916015625-4.22412109375-4.490234375-7.85009765625-7.7265625-10.88037109375-3.2353515625-3.02783203125-7.001953125-5.3759765625-11.3017578125-7.0400390625-4.2998046875-1.66357421875-8.833984375-2.49560546875-13.6015625-2.49560546875h-20.9443359375v70.65576171875Z"/><path d="M571,106.7509765625V18.94287109375c0-1.19384765625.673828125-1.7919921875,2.0244140625-1.7919921875h60.439453125c1.2802734375,0,1.919921875.64794921875,1.919921875,1.94384765625v6.47607421875c0,1.55615234375-.68359375,2.33203125-2.0478515625,2.33203125h-51.7119140625v15.23193359375h41.087890625c.595703125,0,1.06640625.2138671875,1.408203125.64013671875.33984375.427734375.51171875.93994140625.51171875,1.5361328125v6.39990234375c0,.59765625-.171875,1.10986328125-.51171875,1.5361328125-.341796875.427734375-.8125.6396484375-1.408203125.6396484375h-41.087890625v15.8720703125h41.087890625c1.2802734375,0,1.919921875.6845703125,1.919921875,2.0478515625v6.5283203125c0,.51171875-.171875,1.00390625-.51171875,1.4716796875-.341796875.470703125-.8125.7041015625-1.408203125.7041015625h-41.087890625v17.5361328125h51.328125c.681640625,0,1.236328125.1953125,1.6640625.583984375.42578125.388671875.6396484375.927734375.6396484375,1.6181640625v6.34765625c0,1.4677734375-.7255859375,2.2021484375-2.17578125,2.2021484375h-60.0556640625c-1.3505859375,0-2.0244140625-.681640625-2.0244140625-2.0478515625Z"/><path d="M686.9677734375,64.2548828125c2.3037109375-.169921875,4.4580078125-.7880859375,6.4638671875-1.8564453125,2.00390625-1.0654296875,3.7763671875-2.431640625,5.3125-4.095703125s2.751953125-3.56201171875,3.6474609375-5.69580078125c.896484375-2.13232421875,1.3447265625-4.35205078125,1.3447265625-6.65625,0-2.3037109375-.470703125-4.56396484375-1.408203125-6.78369140625-.9404296875-2.21826171875-2.1982421875-4.18017578125-3.7763671875-5.88818359375-1.580078125-1.7060546875-3.4560546875-3.07177734375-5.6318359375-4.09619140625-2.17578125-1.02392578125-4.4599609375-1.53564453125-6.84765625-1.53564453125h-30.8486328125c-1.3662109375,0-2.0478515625-.72412109375-2.0478515625-2.17626953125v-6.39990234375c0-1.27978515625.681640625-1.919921875,2.0478515625-1.919921875h30.9765625c3.83984375,0,7.4658203125.76806640625,10.8798828125,2.3037109375,3.412109375,1.5361328125,6.3857421875,3.6064453125,8.921875,6.2080078125,2.5361328125,2.60400390625,4.5615234375,5.654296875,6.080078125,9.15234375,1.517578125,3.5,2.2783203125,7.16796875,2.2783203125,11.0078125,0,3.244140625-.5546875,6.3798828125-1.662109375,9.40771484375-1.1083984375,3.0302734375-2.6181640625,5.7822265625-4.5341796875,8.255859375-1.916015625,2.4765625-4.1962890625,4.65234375-6.8359375,6.5283203125-2.640625,1.8779296875-5.5361328125,3.244140625-8.6865234375,4.0966796875l19.96875,33.279296875c.255859375.51171875.3837890625.853515625.3837890625,1.0244140625,0,.255859375-.3837890625.3837890625-1.15234375.3837890625h-9.599609375c-.6845703125,0-1.23828125-.19140625-1.6640625-.576171875-.4287109375-.3837890625-.8125-.83203125-1.15234375-1.34375l-19.2958984375-32.1279296875h-21.833984375v32.1279296875c0,1.279296875-.6396484375,1.919921875-1.919921875,1.919921875h-6.65625c-1.3662109375,0-2.0478515625-.640625-2.0478515625-1.919921875v-40.4482421875c0-1.4501953125.681640625-2.17578125,2.0478515625-2.17578125h37.248046875Z"/><path d="M770.6787109375,18.68701171875c6.99609375,16.2138671875,13.267578125,30.7197265625,18.8154296875,43.52001953125,2.3046875,5.4619140625,4.5859375,10.7958984375,6.8486328125,16,2.259765625,5.205078125,4.2880859375,9.85546875,6.080078125,13.951171875,2.1318359375,4.78125,4.095703125,9.302734375,5.8876953125,13.568359375.169921875.427734375.2763671875.748046875.3203125.9609375.0419921875.212890625.0634765625.4052734375.0634765625.5751953125,0,1.0244140625-.7255859375,1.5361328125-2.17578125,1.5361328125h-77.4404296875c-1.6220703125,0-2.431640625-.640625-2.431640625-1.919921875,0-.51171875.083984375-.896484375.255859375-1.15234375l38.14453125-87.03955078125c.51171875-1.1083984375,1.4072265625-1.6640625,2.6875-1.6640625h.3837890625c.8525390625,0,1.408203125.10791015625,1.6640625.31982421875.255859375.2138671875.5546875.662109375.896484375,1.34423828125ZM741.87890625,98.046875h51.83984375l-25.8564453125-60.92822265625-25.9833984375,60.92822265625Z"/><path d="M872.8212890625,19.0947265625v6.34619140625c0,1.64208984375-.767578125,2.4619140625-2.3037109375,2.4619140625h-26.8798828125v78.85205078125c0,.51171875-.1923828125.9794921875-.576171875,1.4052734375-.3837890625.4267578125-.91796875.638671875-1.599609375.638671875h-6.400390625c-1.3662109375,0-2.0478515625-.681640625-2.0478515625-2.0478515625V19.07080078125c0-1.27978515625.681640625-1.919921875,2.0478515625-1.919921875h35.4560546875c1.2802734375,0,2.0478515625.64794921875,2.3037109375,1.94384765625Z"/><path d="M884.98046875,106.7509765625V18.94287109375c0-1.19384765625.673828125-1.7919921875,2.0244140625-1.7919921875h60.439453125c1.2802734375,0,1.919921875.64794921875,1.919921875,1.94384765625v6.47607421875c0,1.55615234375-.68359375,2.33203125-2.0478515625,2.33203125h-51.7119140625v15.23193359375h41.087890625c.595703125,0,1.06640625.2138671875,1.408203125.64013671875.33984375.427734375.51171875.93994140625.51171875,1.5361328125v6.39990234375c0,.59765625-.171875,1.10986328125-.51171875,1.5361328125-.341796875.427734375-.8125.6396484375-1.408203125.6396484375h-41.087890625v15.8720703125h41.087890625c1.2802734375,0,1.919921875.6845703125,1.919921875,2.0478515625v6.5283203125c0,.51171875-.171875,1.00390625-.51171875,1.4716796875-.341796875.470703125-.8125.7041015625-1.408203125.7041015625h-41.087890625v17.5361328125h51.328125c.681640625,0,1.236328125.1953125,1.6640625.583984375.42578125.388671875.6396484375.927734375.6396484375,1.6181640625v6.34765625c0,1.4677734375-.7255859375,2.2021484375-2.17578125,2.2021484375h-60.0556640625c-1.3505859375,0-2.0244140625-.681640625-2.0244140625-2.0478515625Z"/><path d="M963.7001953125,108.798828125c-1.3662109375,0-2.0478515625-.595703125-2.0478515625-1.7919921875V19.32666015625c0-1.44970703125.681640625-2.17578125,2.0478515625-2.17578125h29.4404296875c6.3134765625,0,12.2880859375,1.173828125,17.919921875,3.52001953125,5.6318359375,2.34814453125,10.5380859375,5.58984375,14.7197265625,9.72802734375,4.1796875,4.14013671875,7.48828125,9.00390625,9.919921875,14.591796875,2.4326171875,5.59033203125,3.6484375,11.62841796875,3.6484375,18.11279296875,0,6.5712890625-1.2802734375,12.6513671875-3.83984375,18.2392578125-2.560546875,5.58984375-5.974609375,10.412109375-10.240234375,14.4638671875-4.2685546875,4.0546875-9.173828125,7.232421875-14.7197265625,9.5361328125-5.548828125,2.3037109375-11.3505859375,3.4560546875-17.408203125,3.4560546875h-29.4404296875ZM972.2763671875,98.302734375h20.5615234375c5.1083984375,0,9.8544921875-.9599609375,14.23828125-2.8798828125s8.173828125-4.5,11.3662109375-7.744140625c3.1923828125-3.2412109375,5.7041015625-7.0595703125,7.5361328125-11.4560546875,1.830078125-4.39453125,2.74609375-9.107421875,2.74609375-14.14453125,0-5.119140625-.9580078125-9.79150390625-2.8740234375-14.01513671875-1.916015625-4.22412109375-4.490234375-7.85009765625-7.7265625-10.88037109375-3.2353515625-3.02783203125-7.001953125-5.3759765625-11.3017578125-7.0400390625-4.2998046875-1.66357421875-8.833984375-2.49560546875-13.6015625-2.49560546875h-20.9443359375v70.65576171875Z"/></svg>