<?xml version="1.0" encoding="UTF-8"?><svg id="a" xmlns="http://www.w3.org/2000/svg" viewBox="0 0 1317 450.620738902399353"><rect x="11" y="1.120738902399353" width="754" height="449" style="fill:#ccc;"/><path d="M764.5,1.620738902399353v448H11.5V1.620738902399353h753M765.5.620738902399353H10.5v450h755V.620738902399353h0Z"/><rect x="766" y="1.120738902399353" width="261" height="449" style="fill:#b3b3b3;"/><path d="M1026.5,1.620738902399353v448h-260V1.620738902399353h260M1027.5.620738902399353h-262v450h262V.620738902399353h0Z"/><rect x="1028" y="226.120738902399353" width="288" height="224" style="fill:#ccc;"/><path d="M1315.5,226.620738902399353v223h-287v-223h287M1316.5,225.620738902399353h-289v225h289v-225h0Z"/><polygon points="1027.5 .620738902399353 1316.5 63.620738902399353 1316.5 225.620738902399353 1027.5 225.620738902399353 1027.5 113.120738902399353 1027.5 .620738902399353" style="fill:#f2f2f2; opacity:.6; stroke:#000; stroke-miterlimit:10;"/><rect x="1" y="28.120738902399353" width="709" height="321" style="fill:#e6e6e6;"/><path d="M709.5,28.620738902399353v320H1.5V28.620738902399353h708M710.5,27.620738902399353H.5v322h710V27.620738902399353h0Z"/><rect x=".5" y="27.620738902399353" width="35" height="322" style="fill:#999; stroke:#000; stroke-miterlimit:10;"/><polygon points="1172 113.120738902399353 1316.5 113.120738902399353 1316.5 225.620738902399353 1027.5 225.620738902399353 1027.5 113.120738902399353 1172 113.120738902399353" style="fill:#ccc; stroke:#000; stroke-miterlimit:10;"/></svg>